<mxfile host="app.diagrams.net" modified="2022-03-09T03:17:35.607Z" agent="5.0 (Macintosh; Intel Mac OS X 10_15_5) AppleWebKit/537.36 (KHTML, like Gecko) Chrome/99.0.4844.51 Safari/537.36" etag="Bff7FSa43GXG9ULHlvh8" version="17.0.0" type="github">
  <diagram id="HSfGDlyhOGmyIHZ94gBn" name="第 1 页">
    <mxGraphModel dx="888" dy="586" grid="1" gridSize="10" guides="1" tooltips="1" connect="1" arrows="1" fold="1" page="1" pageScale="1" pageWidth="827" pageHeight="1169" math="0" shadow="0">
      <root>
        <mxCell id="0" />
        <mxCell id="1" parent="0" />
        <mxCell id="xD_pPmzMON3R3X_e0m8q-4" value="" style="edgeStyle=orthogonalEdgeStyle;rounded=1;sketch=1;orthogonalLoop=1;jettySize=auto;html=1;fillColor=#d5e8d4;strokeColor=#82b366;" edge="1" parent="1" source="xD_pPmzMON3R3X_e0m8q-2" target="xD_pPmzMON3R3X_e0m8q-3">
          <mxGeometry relative="1" as="geometry" />
        </mxCell>
        <mxCell id="xD_pPmzMON3R3X_e0m8q-2" value="开始" style="strokeWidth=1;html=1;shape=mxgraph.flowchart.start_1;whiteSpace=wrap;rounded=1;sketch=1;fillColor=#d5e8d4;strokeColor=#82b366;" vertex="1" parent="1">
          <mxGeometry x="360" y="270" width="100" height="60" as="geometry" />
        </mxCell>
        <mxCell id="xD_pPmzMON3R3X_e0m8q-6" value="" style="edgeStyle=orthogonalEdgeStyle;rounded=1;sketch=1;orthogonalLoop=1;jettySize=auto;html=1;fillColor=#d5e8d4;strokeColor=#82b366;" edge="1" parent="1" source="xD_pPmzMON3R3X_e0m8q-3" target="xD_pPmzMON3R3X_e0m8q-5">
          <mxGeometry relative="1" as="geometry" />
        </mxCell>
        <mxCell id="xD_pPmzMON3R3X_e0m8q-3" value="获取app.config.ts内容" style="whiteSpace=wrap;html=1;fillColor=#d5e8d4;strokeColor=#82b366;strokeWidth=1;rounded=1;sketch=1;" vertex="1" parent="1">
          <mxGeometry x="350" y="410" width="120" height="60" as="geometry" />
        </mxCell>
        <mxCell id="xD_pPmzMON3R3X_e0m8q-8" value="" style="edgeStyle=orthogonalEdgeStyle;rounded=1;sketch=1;orthogonalLoop=1;jettySize=auto;html=1;fillColor=#d5e8d4;strokeColor=#82b366;" edge="1" parent="1" source="xD_pPmzMON3R3X_e0m8q-5" target="xD_pPmzMON3R3X_e0m8q-7">
          <mxGeometry relative="1" as="geometry" />
        </mxCell>
        <mxCell id="xD_pPmzMON3R3X_e0m8q-5" value="匹配config字段" style="whiteSpace=wrap;html=1;fillColor=#d5e8d4;strokeColor=#82b366;strokeWidth=1;rounded=1;sketch=1;" vertex="1" parent="1">
          <mxGeometry x="350" y="550" width="120" height="60" as="geometry" />
        </mxCell>
        <mxCell id="xD_pPmzMON3R3X_e0m8q-14" value="" style="edgeStyle=orthogonalEdgeStyle;rounded=1;sketch=1;orthogonalLoop=1;jettySize=auto;html=1;fontColor=#000000;fillColor=#d5e8d4;strokeColor=#82b366;entryX=0.5;entryY=0;entryDx=0;entryDy=0;" edge="1" parent="1" source="xD_pPmzMON3R3X_e0m8q-7" target="xD_pPmzMON3R3X_e0m8q-15">
          <mxGeometry relative="1" as="geometry">
            <mxPoint x="410" y="860" as="targetPoint" />
          </mxGeometry>
        </mxCell>
        <mxCell id="xD_pPmzMON3R3X_e0m8q-7" value="匹配configEnv字段" style="whiteSpace=wrap;html=1;fillColor=#d5e8d4;strokeColor=#82b366;strokeWidth=1;rounded=1;sketch=1;" vertex="1" parent="1">
          <mxGeometry x="350" y="690" width="120" height="60" as="geometry" />
        </mxCell>
        <mxCell id="xD_pPmzMON3R3X_e0m8q-10" value="用于记录config字段生成的环境" style="text;html=1;strokeColor=none;fillColor=none;align=center;verticalAlign=middle;whiteSpace=wrap;rounded=0;sketch=1;fontColor=#FF9999;" vertex="1" parent="1">
          <mxGeometry x="490" y="705" width="60" height="30" as="geometry" />
        </mxCell>
        <mxCell id="xD_pPmzMON3R3X_e0m8q-11" value="" style="strokeWidth=1;html=1;shape=mxgraph.flowchart.annotation_2;align=left;labelPosition=right;pointerEvents=1;rounded=1;sketch=1;fillColor=#d5e8d4;strokeColor=#82b366;" vertex="1" parent="1">
          <mxGeometry x="290" y="440" width="50" height="280" as="geometry" />
        </mxCell>
        <mxCell id="xD_pPmzMON3R3X_e0m8q-12" value="初始化" style="text;html=1;strokeColor=none;fillColor=none;align=center;verticalAlign=middle;whiteSpace=wrap;rounded=0;sketch=1;fontColor=#000000;" vertex="1" parent="1">
          <mxGeometry x="230" y="565" width="60" height="30" as="geometry" />
        </mxCell>
        <mxCell id="xD_pPmzMON3R3X_e0m8q-17" value="" style="edgeStyle=orthogonalEdgeStyle;rounded=1;sketch=1;orthogonalLoop=1;jettySize=auto;html=1;fontColor=#000000;fillColor=#d5e8d4;strokeColor=#82b366;" edge="1" parent="1" source="xD_pPmzMON3R3X_e0m8q-15" target="xD_pPmzMON3R3X_e0m8q-16">
          <mxGeometry relative="1" as="geometry" />
        </mxCell>
        <mxCell id="xD_pPmzMON3R3X_e0m8q-15" value="缓存匹配流程" style="verticalLabelPosition=middle;verticalAlign=middle;html=1;shape=process;whiteSpace=wrap;rounded=1;size=0.14;arcSize=6;sketch=1;strokeWidth=1;fillColor=#d5e8d4;strokeColor=#82b366;labelPosition=center;align=center;" vertex="1" parent="1">
          <mxGeometry x="360" y="820" width="100" height="60" as="geometry" />
        </mxCell>
        <mxCell id="xD_pPmzMON3R3X_e0m8q-19" value="是" style="edgeStyle=orthogonalEdgeStyle;rounded=1;sketch=1;orthogonalLoop=1;jettySize=auto;html=1;fontColor=#000000;fillColor=#d5e8d4;strokeColor=#82b366;" edge="1" parent="1" source="xD_pPmzMON3R3X_e0m8q-16" target="xD_pPmzMON3R3X_e0m8q-18">
          <mxGeometry relative="1" as="geometry" />
        </mxCell>
        <mxCell id="xD_pPmzMON3R3X_e0m8q-23" value="" style="edgeStyle=orthogonalEdgeStyle;rounded=1;sketch=1;orthogonalLoop=1;jettySize=auto;html=1;fontColor=#000000;fillColor=#d5e8d4;strokeColor=#82b366;" edge="1" parent="1" source="xD_pPmzMON3R3X_e0m8q-16" target="xD_pPmzMON3R3X_e0m8q-22">
          <mxGeometry relative="1" as="geometry" />
        </mxCell>
        <mxCell id="xD_pPmzMON3R3X_e0m8q-31" value="否" style="edgeLabel;html=1;align=center;verticalAlign=middle;resizable=0;points=[];fontColor=#000000;" vertex="1" connectable="0" parent="xD_pPmzMON3R3X_e0m8q-23">
          <mxGeometry x="-0.2667" relative="1" as="geometry">
            <mxPoint as="offset" />
          </mxGeometry>
        </mxCell>
        <mxCell id="xD_pPmzMON3R3X_e0m8q-16" value="是否命中缓存" style="rhombus;whiteSpace=wrap;html=1;fillColor=#d5e8d4;strokeColor=#82b366;rounded=1;arcSize=6;sketch=1;strokeWidth=1;" vertex="1" parent="1">
          <mxGeometry x="370" y="950" width="80" height="80" as="geometry" />
        </mxCell>
        <mxCell id="xD_pPmzMON3R3X_e0m8q-18" value="结束" style="ellipse;whiteSpace=wrap;html=1;fillColor=#d5e8d4;strokeColor=#82b366;rounded=1;arcSize=6;sketch=1;strokeWidth=1;" vertex="1" parent="1">
          <mxGeometry x="350" y="1120" width="120" height="60" as="geometry" />
        </mxCell>
        <mxCell id="xD_pPmzMON3R3X_e0m8q-27" value="" style="edgeStyle=orthogonalEdgeStyle;rounded=1;sketch=1;orthogonalLoop=1;jettySize=auto;html=1;fontColor=#000000;fillColor=#d5e8d4;strokeColor=#82b366;" edge="1" parent="1" source="xD_pPmzMON3R3X_e0m8q-22" target="xD_pPmzMON3R3X_e0m8q-26">
          <mxGeometry relative="1" as="geometry" />
        </mxCell>
        <mxCell id="xD_pPmzMON3R3X_e0m8q-22" value="扫描项目目录生成config配置流程" style="shape=process;whiteSpace=wrap;html=1;backgroundOutline=1;fillColor=#d5e8d4;strokeColor=#82b366;rounded=1;arcSize=6;sketch=1;strokeWidth=1;" vertex="1" parent="1">
          <mxGeometry x="510" y="960" width="120" height="60" as="geometry" />
        </mxCell>
        <mxCell id="xD_pPmzMON3R3X_e0m8q-29" value="" style="edgeStyle=orthogonalEdgeStyle;rounded=1;sketch=1;orthogonalLoop=1;jettySize=auto;html=1;fontColor=#000000;fillColor=#d5e8d4;strokeColor=#82b366;" edge="1" parent="1" source="xD_pPmzMON3R3X_e0m8q-26" target="xD_pPmzMON3R3X_e0m8q-28">
          <mxGeometry relative="1" as="geometry" />
        </mxCell>
        <mxCell id="xD_pPmzMON3R3X_e0m8q-26" value="更新app.config.ts" style="whiteSpace=wrap;html=1;fillColor=#d5e8d4;strokeColor=#82b366;rounded=1;arcSize=6;sketch=1;strokeWidth=1;" vertex="1" parent="1">
          <mxGeometry x="710" y="960" width="120" height="60" as="geometry" />
        </mxCell>
        <mxCell id="xD_pPmzMON3R3X_e0m8q-30" style="edgeStyle=orthogonalEdgeStyle;rounded=1;sketch=1;orthogonalLoop=1;jettySize=auto;html=1;exitX=0;exitY=0.5;exitDx=0;exitDy=0;entryX=1;entryY=0.5;entryDx=0;entryDy=0;fontColor=#000000;fillColor=#d5e8d4;strokeColor=#82b366;" edge="1" parent="1" source="xD_pPmzMON3R3X_e0m8q-28" target="xD_pPmzMON3R3X_e0m8q-18">
          <mxGeometry relative="1" as="geometry" />
        </mxCell>
        <mxCell id="xD_pPmzMON3R3X_e0m8q-28" value="更新缓存" style="whiteSpace=wrap;html=1;fillColor=#d5e8d4;strokeColor=#82b366;rounded=1;arcSize=6;sketch=1;strokeWidth=1;" vertex="1" parent="1">
          <mxGeometry x="710" y="1120" width="120" height="60" as="geometry" />
        </mxCell>
        <mxCell id="xD_pPmzMON3R3X_e0m8q-32" value="主流程" style="text;html=1;strokeColor=none;fillColor=none;align=center;verticalAlign=middle;whiteSpace=wrap;rounded=0;sketch=1;fontColor=#000000;" vertex="1" parent="1">
          <mxGeometry x="380" y="210" width="60" height="30" as="geometry" />
        </mxCell>
        <mxCell id="xD_pPmzMON3R3X_e0m8q-37" value="" style="edgeStyle=orthogonalEdgeStyle;rounded=1;sketch=1;orthogonalLoop=1;jettySize=auto;html=1;fontColor=#000000;fillColor=#d5e8d4;strokeColor=#82b366;" edge="1" parent="1" source="xD_pPmzMON3R3X_e0m8q-34" target="xD_pPmzMON3R3X_e0m8q-36">
          <mxGeometry relative="1" as="geometry" />
        </mxCell>
        <mxCell id="xD_pPmzMON3R3X_e0m8q-34" value="开始" style="strokeWidth=1;html=1;shape=mxgraph.flowchart.start_1;whiteSpace=wrap;rounded=1;sketch=1;fillColor=#d5e8d4;strokeColor=#82b366;" vertex="1" parent="1">
          <mxGeometry x="1140" y="260" width="100" height="60" as="geometry" />
        </mxCell>
        <mxCell id="xD_pPmzMON3R3X_e0m8q-35" value="缓存匹配" style="text;html=1;strokeColor=none;fillColor=none;align=center;verticalAlign=middle;whiteSpace=wrap;rounded=0;sketch=1;fontColor=#000000;" vertex="1" parent="1">
          <mxGeometry x="1160" y="200" width="60" height="30" as="geometry" />
        </mxCell>
        <mxCell id="xD_pPmzMON3R3X_e0m8q-46" value="" style="edgeStyle=orthogonalEdgeStyle;rounded=1;sketch=1;orthogonalLoop=1;jettySize=auto;html=1;fontColor=#000000;fillColor=#d5e8d4;strokeColor=#82b366;" edge="1" parent="1" source="xD_pPmzMON3R3X_e0m8q-36" target="xD_pPmzMON3R3X_e0m8q-45">
          <mxGeometry relative="1" as="geometry" />
        </mxCell>
        <mxCell id="xD_pPmzMON3R3X_e0m8q-47" value="否" style="edgeLabel;html=1;align=center;verticalAlign=middle;resizable=0;points=[];fontColor=#000000;" vertex="1" connectable="0" parent="xD_pPmzMON3R3X_e0m8q-46">
          <mxGeometry x="-0.088" y="1" relative="1" as="geometry">
            <mxPoint as="offset" />
          </mxGeometry>
        </mxCell>
        <mxCell id="xD_pPmzMON3R3X_e0m8q-51" value="" style="edgeStyle=orthogonalEdgeStyle;rounded=1;sketch=1;orthogonalLoop=1;jettySize=auto;html=1;fontColor=#000000;fillColor=#d5e8d4;strokeColor=#82b366;" edge="1" parent="1" source="xD_pPmzMON3R3X_e0m8q-36" target="xD_pPmzMON3R3X_e0m8q-50">
          <mxGeometry relative="1" as="geometry" />
        </mxCell>
        <mxCell id="xD_pPmzMON3R3X_e0m8q-52" value="是" style="edgeLabel;html=1;align=center;verticalAlign=middle;resizable=0;points=[];fontColor=#000000;" vertex="1" connectable="0" parent="xD_pPmzMON3R3X_e0m8q-51">
          <mxGeometry x="-0.14" y="2" relative="1" as="geometry">
            <mxPoint as="offset" />
          </mxGeometry>
        </mxCell>
        <mxCell id="xD_pPmzMON3R3X_e0m8q-36" value="判断configEnv字段是否与当前构建环境相同" style="rhombus;whiteSpace=wrap;html=1;fillColor=#d5e8d4;strokeColor=#82b366;strokeWidth=1;rounded=1;sketch=1;" vertex="1" parent="1">
          <mxGeometry x="1110" y="390" width="160" height="150" as="geometry" />
        </mxCell>
        <mxCell id="xD_pPmzMON3R3X_e0m8q-49" value="" style="edgeStyle=orthogonalEdgeStyle;rounded=1;sketch=1;orthogonalLoop=1;jettySize=auto;html=1;fontColor=#000000;fillColor=#d5e8d4;strokeColor=#82b366;" edge="1" parent="1" source="xD_pPmzMON3R3X_e0m8q-45" target="xD_pPmzMON3R3X_e0m8q-48">
          <mxGeometry relative="1" as="geometry" />
        </mxCell>
        <mxCell id="xD_pPmzMON3R3X_e0m8q-45" value="缓存未命中" style="whiteSpace=wrap;html=1;fillColor=#d5e8d4;strokeColor=#82b366;strokeWidth=1;rounded=1;sketch=1;" vertex="1" parent="1">
          <mxGeometry x="1130" y="715" width="120" height="60" as="geometry" />
        </mxCell>
        <mxCell id="xD_pPmzMON3R3X_e0m8q-48" value="结束" style="ellipse;whiteSpace=wrap;html=1;fillColor=#d5e8d4;strokeColor=#82b366;strokeWidth=1;rounded=1;sketch=1;" vertex="1" parent="1">
          <mxGeometry x="1130" y="1169" width="120" height="60" as="geometry" />
        </mxCell>
        <mxCell id="xD_pPmzMON3R3X_e0m8q-54" value="" style="edgeStyle=orthogonalEdgeStyle;rounded=1;sketch=1;orthogonalLoop=1;jettySize=auto;html=1;fontColor=#000000;fillColor=#d5e8d4;strokeColor=#82b366;" edge="1" parent="1" source="xD_pPmzMON3R3X_e0m8q-50" target="xD_pPmzMON3R3X_e0m8q-53">
          <mxGeometry relative="1" as="geometry" />
        </mxCell>
        <mxCell id="xD_pPmzMON3R3X_e0m8q-50" value="读取缓存文件内容cacheObj" style="whiteSpace=wrap;html=1;fillColor=#d5e8d4;strokeColor=#82b366;strokeWidth=1;rounded=1;sketch=1;" vertex="1" parent="1">
          <mxGeometry x="1370" y="435" width="120" height="60" as="geometry" />
        </mxCell>
        <mxCell id="xD_pPmzMON3R3X_e0m8q-56" value="" style="edgeStyle=orthogonalEdgeStyle;rounded=1;sketch=1;orthogonalLoop=1;jettySize=auto;html=1;fontColor=#000000;fillColor=#d5e8d4;strokeColor=#82b366;" edge="1" parent="1" source="xD_pPmzMON3R3X_e0m8q-53" target="xD_pPmzMON3R3X_e0m8q-55">
          <mxGeometry relative="1" as="geometry" />
        </mxCell>
        <mxCell id="xD_pPmzMON3R3X_e0m8q-53" value="搜索查询全部页面pages" style="whiteSpace=wrap;html=1;fillColor=#d5e8d4;strokeColor=#82b366;strokeWidth=1;rounded=1;sketch=1;" vertex="1" parent="1">
          <mxGeometry x="1370" y="575" width="120" height="60" as="geometry" />
        </mxCell>
        <mxCell id="xD_pPmzMON3R3X_e0m8q-60" style="edgeStyle=orthogonalEdgeStyle;rounded=1;sketch=1;orthogonalLoop=1;jettySize=auto;html=1;exitX=0;exitY=0.5;exitDx=0;exitDy=0;fontColor=#000000;fillColor=#d5e8d4;strokeColor=#82b366;" edge="1" parent="1" source="xD_pPmzMON3R3X_e0m8q-55" target="xD_pPmzMON3R3X_e0m8q-45">
          <mxGeometry relative="1" as="geometry" />
        </mxCell>
        <mxCell id="xD_pPmzMON3R3X_e0m8q-61" value="否" style="edgeLabel;html=1;align=center;verticalAlign=middle;resizable=0;points=[];fontColor=#000000;" vertex="1" connectable="0" parent="xD_pPmzMON3R3X_e0m8q-60">
          <mxGeometry x="-0.0286" y="-1" relative="1" as="geometry">
            <mxPoint as="offset" />
          </mxGeometry>
        </mxCell>
        <mxCell id="xD_pPmzMON3R3X_e0m8q-63" value="" style="edgeStyle=orthogonalEdgeStyle;rounded=1;sketch=1;orthogonalLoop=1;jettySize=auto;html=1;fontColor=#000000;" edge="1" parent="1" source="xD_pPmzMON3R3X_e0m8q-55" target="xD_pPmzMON3R3X_e0m8q-62">
          <mxGeometry relative="1" as="geometry" />
        </mxCell>
        <mxCell id="xD_pPmzMON3R3X_e0m8q-64" value="是" style="edgeLabel;html=1;align=center;verticalAlign=middle;resizable=0;points=[];fontColor=#000000;" vertex="1" connectable="0" parent="xD_pPmzMON3R3X_e0m8q-63">
          <mxGeometry x="-0.1222" y="-1" relative="1" as="geometry">
            <mxPoint as="offset" />
          </mxGeometry>
        </mxCell>
        <mxCell id="xD_pPmzMON3R3X_e0m8q-55" value="pages是否全部有对应的缓存" style="rhombus;whiteSpace=wrap;html=1;fillColor=#d5e8d4;strokeColor=#82b366;strokeWidth=1;rounded=1;sketch=1;" vertex="1" parent="1">
          <mxGeometry x="1390" y="705" width="80" height="80" as="geometry" />
        </mxCell>
        <mxCell id="xD_pPmzMON3R3X_e0m8q-65" style="edgeStyle=orthogonalEdgeStyle;rounded=1;sketch=1;orthogonalLoop=1;jettySize=auto;html=1;exitX=0.5;exitY=1;exitDx=0;exitDy=0;entryX=0.5;entryY=0;entryDx=0;entryDy=0;fontColor=#000000;fillColor=#d5e8d4;strokeColor=#82b366;" edge="1" parent="1" source="xD_pPmzMON3R3X_e0m8q-62" target="xD_pPmzMON3R3X_e0m8q-48">
          <mxGeometry relative="1" as="geometry" />
        </mxCell>
        <mxCell id="xD_pPmzMON3R3X_e0m8q-62" value="缓存命中" style="whiteSpace=wrap;html=1;fillColor=#d5e8d4;strokeColor=#82b366;strokeWidth=1;rounded=1;sketch=1;" vertex="1" parent="1">
          <mxGeometry x="1370" y="875" width="120" height="60" as="geometry" />
        </mxCell>
      </root>
    </mxGraphModel>
  </diagram>
</mxfile>
